<?xml version="1.0" encoding="iso-8859-1"?>
<!-- Generator: Adobe Illustrator 19.0.0, SVG Export Plug-In . SVG Version: 6.00 Build 0)  -->
<svg version="1.1" id="Capa_1" xmlns="http://www.w3.org/2000/svg" xmlns:xlink="http://www.w3.org/1999/xlink" x="0px" y="0px"
	 viewBox="0 0 512.001 512.001" style="enable-background:new 0 0 512.001 512.001;" xml:space="preserve">
<path style="fill:#EA8D4E;" d="M421.839,177.663c-25.987-9.855-60.521-4.74-88.021-5.464c-35.749-0.941-71.342,1.665-106.954,1.566
	c-37.285-0.103-74.563,4.678-112.045,4.678c-16.903,0-33.716-0.157-50.569-0.782c-11.2-0.416-23.436-2.213-34.665-0.602
	c-11.995,1.722-22.254,12.286-23.463,24.453c-0.525,5.295-0.614,11.438,1.152,16.525c2.713,7.813,7.582,5.602,11.512,10.174
	c8.848,10.294-0.366,36.088,0.011,48.295c1.146,37.126,0.119,74.447-1.715,111.541c-0.525,10.629-0.606,21.526-0.606,32.31
	c0,6.089-2.795,20.804,0.156,26.094c3.361,6.028,14.865,4.614,20.878,4.833c16.604,0.604,33.253-1.6,49.882-1.56
	c73.027,0.174,145.99,4.747,219.093,7.836c37.126,1.568,74.364,1.438,111.536,2.904c16.39,0.647,44.587,6.829,54.705-9.749
	c10.378-17.004,10.281-34.524,11.092-53.906c0.869-20.819,1.222-41.666,0.559-62.496c-0.781-24.542,0.241-49.1,1.611-73.602
	c0.33-5.906-0.34-13.104,1.114-18.823c1.555-6.112,1.923-4.892,5.858-9.3c7.318-8.196,9.192-17.338,12.289-27.552
	c3.665-12.089,5.866-20.511-9.08-23.317c-9.052-1.7-19.277-1.458-28.507-2.306C454.119,178.17,440.809,175.032,421.839,177.663z"/>
<path style="fill:#CC6D3E;" d="M503.785,203.393c-8.188,2.835-18.024,2.271-26.753,2.532c-25.813,0.773-51.392,1.965-77.227,1.287
	c-52.25-1.371-104.337-0.224-156.463-5.105c-43.768-4.1-87.771-9.024-131.77-8.986c-17.969,0.015-36.065,0.604-54.023,0.032
	c-11.891-0.378-26.604-3.115-38.303-0.038c-11.336,2.982-20.016,19.23-12.38,29.934c3.549,4.974,10.479,3.125,14.463,7.198
	c2.764,2.825,2.929,7.145,3.031,10.853c0.225,8.125-2.499,15.878-3.258,23.877c-2.205,23.243-3.719,46.725-5.277,70.023
	c-1.635,24.462-1.833,49.262-0.589,73.736c0.438,8.631,1.671,16.598,1.054,25.134c-0.352,4.849-2.346,13.061,1.738,16.724
	c8.066,7.233,29.012,3.722,38.582,3.235c18.263-0.928,36.867-2.613,55.16-1.906c21.938,0.848,43.9,2.884,65.861,3.83
	c23.255,1.002,46.37-1.959,69.571-2.135c39.764-0.303,80.747-1.016,120.236,4.654c21.169,3.039,42.336,5.841,63.769,5.01
	c12.62-0.49,31.221,2.746,40.832-7.515c11.168-11.924,9.495-37.409,10.7-52.413c2.106-26.236,4.437-52.439,4.352-78.871
	c-0.062-19.1,1.381-38.299-0.143-57.385c-0.602-7.532-2.201-14.428-4.031-21.65c-2.742-10.825,10.492-10.813,16.373-18.572
	c2.934-3.871,5.099-5.945,5.808-10.926C505.668,211.948,504.663,207.909,503.785,203.393z"/>
<path style="fill:#B7582E;" d="M487.351,256.711c-85.763,0-179.775,8.696-259.253,42.131c-47.47,19.97-89.093,49.562-112.471,96.074
	c-7.392,14.705-7.346,32.25-16.326,45.96c-6.229,9.511-13.962,17.127-24.46,15.632c-8.54-1.216-14.57-4.71-23.66-4.344
	c-14.551,0.586-31.976,5.88-34.972-12.551c-5.108-31.426,4.184-65.282,4.111-96.749c-0.076-32.964,1.886-65.477,3.086-98.216
	c0.477-13.007,0.069-15.556,14.244-16.993c24.308-2.465,48.183-1.671,72.605-2.78c46.064-2.094,91.43,0.423,137.228,3.057
	c47.215,2.715,93.604,7.177,141.176,7.177c26.752,0,55.9-3.271,82.301,1.053C481.593,237.902,484.334,239.791,487.351,256.711z"/>
<path style="fill:#CAD6DD;" d="M46.04,304.31c-2.229,2.686-7.425,12.481-4.201,17.336c2.669,4.018,14.163,6.11,18.403,6.215
	c19.129,0.472,38.944-0.662,58.131-0.682c11.704-0.012,31.041,3.744,35.876-11.146c5.309-16.347-29.627-6.851-36.51-6.779
	C95.095,309.49,71.212,305.921,46.04,304.31z"/>
<path style="fill:#DB3333;" d="M78.181,250.536c-14.872,5.259-30.039,8.121-31.521,26.904c-0.851,10.769-2.878,21.281,9.876,25.183
	c13.046,3.99,26.747,3.368,40.171,2.448c13.664-0.936,27.218,1.699,41.015-0.732c15.45-2.723,12.836-24.856,8.449-35.562
	c-3.951-9.644-12.667-14.706-22.715-17.019C109.882,248.636,87.839,245.389,78.181,250.536z"/>
<path style="fill:#BC2222;" d="M83.126,252.391c-5.762,4.087-5.191,17.623-2.535,23.485c5.285,11.661,20.394,13.137,31.532,12.678
	c7.128-0.294,21.479-3.393,28.016,1.029c3.054,2.066,5.608,7.685,3.727,11.032c-3.602,6.409-16.582,3.153-22.2,3.199
	c-11.365,0.095-22.566,0.597-34.029,0.495c-8.026-0.071-15.779-1.901-23.762-1.853c-4.594,0.029-14.277,2.208-17.861-1.844
	c-4.846-5.478,0.468-21.844,2.863-27.896C53.773,260.346,62.858,255.106,83.126,252.391z"/>
<path style="fill:#CAD6DD;" d="M87.452,325.942c0.346,19.615-2.977,39.191-3.123,58.75c-0.095,12.878,1.153,26.055,1.887,38.89
	c0.798,13.95,0.807,18.392-11.779,26.029c-7.661,4.649-14.745,8.997-21.785,14.645c-2.914,2.338-12.039,9.04-11.551,13.117
	c0.929,7.764,35.035,5.843,41.538,6.235c17.647,1.066,34.862,1.33,52.438,1.182c7.039-0.059,22.833,0.957,15.45-9.303
	c-3.586-4.984-11.876-8.716-16.873-12.313c-6.736-4.849-13.525-9.702-19.037-15.981c-6.395-7.283-3.28-15.831-4.604-25.465
	c-2.34-17.024-3.393-34.16-3.4-51.323c-0.003-7.847,0.578-15.597,0.619-23.425c0.021-4.225,1.689-10.54,0.617-14.575
	C105.423,323.271,93.682,330.794,87.452,325.942z"/>
<path style="fill:#A6B3BD;" d="M109.703,356.228c-15.544,25.597-10.378,52.677-11.729,80.945
	c-0.659,13.805,3.277,39.315-9.871,46.981c-9.244,5.389-21.918,3.994-32.236,2.97c-3.377-0.335-10.129-0.3-12.176-3.539
	c-3.294-5.21,3.042-11.63,7.003-13.812c9.284-5.113,16.617-11.375,24.788-18.371c4.123-3.531,7.732-5.521,9.961-10.604
	c3.308-7.542,2.366-17.688,2.164-25.715c-0.294-11.646-0.154-23.329-0.154-34.989c0-8.393-0.057-16.792,0.291-25.18
	c0.239-5.754,2.479-15.036,1.137-20.588c-1.811-7.489-12.5-6.985-19.197-7.15c-8.318-0.205-29.426,1.527-27.258-11.03
	c15.518-4.285,35.174,2.286,51.152,2.379c14.773,0.086,29.518-0.474,44.093-1.837c2.45-0.229,8.265-2,10.369-0.031
	c4.296,4.018-3.666,5.86-6.75,6.676c-8.326,2.2-18.742,0.439-26.627,3.192C105.138,329.85,113.771,348.249,109.703,356.228z"/>
<path style="fill:#CAD6DD;" d="M200.562,305.546c-2.229,2.686-7.426,12.481-4.201,17.336c2.669,4.018,14.163,6.11,18.402,6.215
	c19.13,0.472,38.945-0.662,58.131-0.682c11.705-0.012,31.042,3.744,35.877-11.146c5.309-16.348-29.628-6.851-36.51-6.779
	C249.616,310.726,225.733,307.157,200.562,305.546z"/>
<path style="fill:#DB3333;" d="M232.702,251.772c-14.872,5.259-30.039,8.121-31.521,26.904c-0.851,10.769-2.878,21.281,9.875,25.183
	c13.046,3.99,26.748,3.368,40.172,2.448c13.664-0.936,27.218,1.699,41.015-0.732c15.45-2.723,12.836-24.856,8.449-35.562
	c-3.951-9.644-12.668-14.707-22.716-17.019C264.403,249.872,242.36,246.625,232.702,251.772z"/>
<path style="fill:#BC2222;" d="M237.647,253.626c-5.763,4.088-5.191,17.624-2.535,23.485c5.285,11.661,20.394,13.138,31.531,12.679
	c7.128-0.295,21.48-3.393,28.017,1.029c3.054,2.066,5.607,7.685,3.727,11.032c-3.603,6.409-16.582,3.152-22.201,3.199
	c-11.364,0.095-22.566,0.597-34.028,0.495c-8.026-0.071-15.779-1.901-23.762-1.853c-4.594,0.028-14.277,2.207-17.861-1.844
	c-4.846-5.479,0.467-21.844,2.863-27.896C208.295,261.581,217.38,256.343,237.647,253.626z"/>
<path style="fill:#CAD6DD;" d="M241.974,327.179c0.346,19.615-2.977,39.19-3.123,58.75c-0.096,12.878,1.152,26.055,1.887,38.89
	c0.797,13.95,0.806,18.392-11.779,26.029c-7.661,4.649-14.745,8.997-21.785,14.645c-2.914,2.338-12.04,9.04-11.552,13.117
	c0.93,7.763,35.036,5.842,41.538,6.235c17.648,1.066,34.863,1.33,52.439,1.182c7.038-0.059,22.832,0.957,15.449-9.303
	c-3.586-4.984-11.876-8.717-16.873-12.313c-6.736-4.849-13.525-9.702-19.037-15.981c-6.395-7.283-3.28-15.831-4.604-25.466
	c-2.339-17.023-3.392-34.159-3.399-51.322c-0.003-7.847,0.578-15.597,0.618-23.425c0.021-4.226,1.69-10.541,0.618-14.575
	C259.944,324.507,248.202,332.03,241.974,327.179z"/>
<path style="fill:#A6B3BD;" d="M264.225,357.465c-15.544,25.597-10.378,52.677-11.729,80.944
	c-0.66,13.805,3.276,39.316-9.872,46.981c-9.243,5.39-21.917,3.995-32.235,2.971c-3.377-0.335-10.129-0.3-12.176-3.539
	c-3.295-5.211,3.042-11.63,7.003-13.812c9.284-5.113,16.617-11.375,24.788-18.372c4.123-3.531,7.732-5.521,9.961-10.604
	c3.308-7.541,2.365-17.688,2.163-25.714c-0.293-11.646-0.153-23.329-0.153-34.989c0-8.393-0.057-16.793,0.291-25.18
	c0.239-5.754,2.479-15.036,1.137-20.589c-1.811-7.488-12.5-6.985-19.197-7.149c-8.318-0.205-29.427,1.527-27.258-11.03
	c15.518-4.286,35.174,2.286,51.152,2.379c14.772,0.086,29.518-0.474,44.093-1.837c2.449-0.229,8.264-2,10.368-0.031
	c4.297,4.017-3.666,5.86-6.749,6.676c-8.326,2.2-18.742,0.439-26.627,3.192C259.659,331.086,268.292,349.484,264.225,357.465z"/>
<path style="fill:#CAD6DD;" d="M354.465,309.254c-2.229,2.686-7.425,12.481-4.201,17.337c2.669,4.018,14.163,6.109,18.403,6.215
	c19.129,0.472,38.945-0.662,58.131-0.683c11.704-0.012,31.041,3.744,35.876-11.146c5.309-16.347-29.628-6.851-36.51-6.778
	C403.52,314.435,379.637,310.865,354.465,309.254z"/>
<path style="fill:#DB3333;" d="M386.605,255.48c-14.872,5.26-30.039,8.122-31.521,26.904c-0.851,10.769-2.878,21.281,9.875,25.183
	c13.046,3.99,26.748,3.368,40.172,2.449c13.665-0.937,27.218,1.699,41.015-0.732c15.45-2.723,12.836-24.857,8.449-35.563
	c-3.951-9.643-12.668-14.706-22.715-17.018C418.307,253.581,396.263,250.333,386.605,255.48z"/>
<path style="fill:#BC2222;" d="M391.55,257.335c-5.762,4.088-5.19,17.623-2.533,23.485c5.284,11.661,20.393,13.137,31.531,12.678
	c7.127-0.294,21.479-3.393,28.016,1.03c3.054,2.066,5.607,7.684,3.727,11.031c-3.603,6.409-16.582,3.153-22.201,3.199
	c-11.364,0.095-22.566,0.598-34.028,0.495c-8.026-0.071-15.779-1.901-23.763-1.852c-4.594,0.028-14.277,2.207-17.86-1.845
	c-4.846-5.478,0.467-21.844,2.862-27.895C362.198,265.29,371.283,260.052,391.55,257.335z"/>
<path style="fill:#CAD6DD;" d="M395.876,330.888c0.347,19.614-2.977,39.19-3.122,58.75c-0.096,12.877,1.152,26.055,1.887,38.889
	c0.798,13.95,0.806,18.392-11.779,26.029c-7.661,4.649-14.745,8.998-21.785,14.645c-2.915,2.338-12.04,9.04-11.552,13.118
	c0.93,7.763,35.036,5.841,41.539,6.234c17.646,1.066,34.862,1.331,52.438,1.183c7.039-0.06,22.832,0.957,15.45-9.304
	c-3.586-4.983-11.876-8.716-16.874-12.313c-6.735-4.849-13.524-9.702-19.037-15.98c-6.395-7.283-3.279-15.832-4.604-25.466
	c-2.339-17.024-3.392-34.16-3.399-51.323c-0.003-7.846,0.578-15.596,0.618-23.424c0.021-4.226,1.689-10.541,0.618-14.576
	C413.848,328.216,402.106,335.739,395.876,330.888z"/>
<path style="fill:#A6B3BD;" d="M418.128,361.173c-15.544,25.598-10.379,52.677-11.729,80.945
	c-0.66,13.805,3.276,39.316-9.872,46.981c-9.244,5.389-21.918,3.995-32.236,2.97c-3.376-0.335-10.128-0.3-12.176-3.539
	c-3.293-5.21,3.043-11.629,7.004-13.811c9.284-5.114,16.617-11.375,24.788-18.372c4.123-3.531,7.731-5.521,9.961-10.604
	c3.308-7.542,2.366-17.688,2.163-25.715c-0.293-11.646-0.154-23.328-0.154-34.989c0-8.393-0.057-16.792,0.292-25.18
	c0.239-5.754,2.479-15.036,1.136-20.588c-1.81-7.489-12.499-6.985-19.196-7.15c-8.319-0.205-29.427,1.528-27.258-11.03
	c15.517-4.285,35.173,2.287,51.151,2.379c14.773,0.086,29.519-0.473,44.094-1.836c2.449-0.229,8.264-2,10.369-0.032
	c4.296,4.018-3.666,5.861-6.75,6.676c-8.326,2.2-18.742,0.44-26.627,3.192C413.563,334.794,422.196,353.193,418.128,361.173z"/>
<g>
	<path style="fill:#127053;" d="M57.712,44.993c0,6.691-0.053,13.359-0.323,20.032c-0.248,6.112,1.063,12.019-2.138,17.515
		c-2.543,4.368-7.805,7.728-9.248,12.577c-0.709,2.382-1.637,9.001,0.622,9.931c1.675,0.688,4.863-0.713,6.476-1.008
		c3.807-0.693,7.456-0.733,11.304-0.84c6.14-0.171,12.187-0.863,18.337-0.923c13.757-0.134,1.906-16.353-2.244-21.835
		C75.213,73.463,76.5,61.631,76.5,53.441c0-2.889,0.904-5.938-1.517-7.616C72.364,44.012,65.305,43.366,57.712,44.993z"/>
	<path style="fill:#127053;" d="M42.621,144.778c-1.254,4.399-1.062,12.58-0.923,17.898c0.126,4.793,0.445,7.985,5.532,8.279
		c11.804,0.682,23.653,0.615,35.525,0.615c3.407,0,7.19,0.588,9.473-2.525c2.51-3.424,1.029-9.842,0.908-13.706
		c-0.34-10.84-1.717-14.07-12.663-14.581C69.236,140.233,54.65,138.98,42.621,144.778z"/>
</g>
<g>
	<path style="fill:#0E5B41;" d="M65.495,44.361c2.854,6.016,0.938,15.896,0.938,22.406c0,7.598-0.17,15.216-0.555,22.787
		c-0.138,2.696,0.998,9.137-0.929,11.585c-0.945,1.2-3.176,1.505-4.99,1.625c-3.405,0.225-6.137-0.313-9.522,0.539
		c-2.869,0.724-3.953,1.61-4.62-1.471c-2.324-10.734,10.978-21.388,13.206-31.575c1.675-7.655,1.195-13.932-1.037-21.215
		C56.532,44.3,60.995,42.798,65.495,44.361z"/>
	<path style="fill:#0E5B41;" d="M59.875,141.479c2.712,3.322,0.937,12.872,0.937,17.126c0,2.979,1.547,10.609-0.914,12.805
		c-1.239,1.105-6.816,1.52-8.533,1.842c-4.231,0.793-7.133,0.69-8.045-3.979c-1.109-5.68,0.025-11.766-0.543-17.503
		c-0.231-2.335-0.967-4.921,0.236-7.114C47.155,137.101,56.821,145.27,59.875,141.479z"/>
</g>
<path style="fill:#FDB827;" d="M46.254,103.48c-2.72,10.302-5.333,28.053-1.547,38.845c8.547,0.533,17.11-0.224,26.117-0.719
	c7.546-0.416,18.711,2.579,22.026-3.753c3.158-6.03-1.736-35.163-7.623-37.806c-5.17-2.321-13.433,1.955-18.451,2.793
	C61.475,103.726,55.96,103.48,46.254,103.48z"/>
<g>
	<path style="fill:#F49D34;" d="M65.329,103.679c-0.111,7.858-1.762,15.656-2.582,23.479c-0.268,2.552,0.998,10.567-0.547,12.61
		c-2.863,3.788-14.423,2.209-18.674,3.786c0.268-10.851-2.577-25.125,1.788-35.292c1.417-3.298,0.276-3.133,4.526-4.136
		C53.725,103.208,59.459,103.339,65.329,103.679z"/>
	<path style="fill:#F49D34;" d="M58.457,21.208c-7.098,1.971-14.364,10.344-7.442,17.039c3.854,3.729,14.488,5.266,19.48,4.754
		C97.561,40.229,70.658,10.16,58.457,21.208z"/>
</g>
<g>
	<path style="fill:#127053;" d="M128.155,44.421c0,6.691-0.053,13.359-0.324,20.032c-0.248,6.112,1.063,12.019-2.137,17.515
		c-2.543,4.367-7.805,7.727-9.248,12.577c-0.709,2.381-1.637,9.001,0.621,9.931c1.675,0.688,4.863-0.714,6.477-1.008
		c3.806-0.693,7.455-0.733,11.303-0.841c6.141-0.171,12.188-0.862,18.338-0.923c13.756-0.133,1.906-16.352-2.245-21.834
		c-5.284-6.979-3.998-18.812-3.998-27.002c0-2.888,0.905-5.938-1.517-7.615C142.808,43.439,135.747,42.793,128.155,44.421z"/>
	<path style="fill:#127053;" d="M113.064,144.205c-1.255,4.4-1.063,12.581-0.923,17.899c0.125,4.793,0.445,7.984,5.531,8.278
		c11.804,0.683,23.654,0.616,35.525,0.616c3.407,0,7.19,0.587,9.473-2.526c2.51-3.423,1.029-9.841,0.908-13.705
		c-0.34-10.84-1.717-14.071-12.663-14.582C139.679,139.661,125.093,138.408,113.064,144.205z"/>
</g>
<g>
	<path style="fill:#0E5B41;" d="M135.939,43.789c2.853,6.016,0.937,15.896,0.937,22.405c0,7.598-0.171,15.217-0.555,22.788
		c-0.137,2.695,0.999,9.136-0.929,11.585c-0.944,1.199-3.175,1.504-4.989,1.624c-3.406,0.226-6.138-0.313-9.522,0.54
		c-2.869,0.724-3.954,1.61-4.621-1.472c-2.323-10.734,10.979-21.388,13.207-31.575c1.675-7.656,1.195-13.932-1.037-21.216
		C126.975,43.726,131.438,42.226,135.939,43.789z"/>
	<path style="fill:#0E5B41;" d="M130.317,140.906c2.713,3.323,0.938,12.873,0.938,17.126c0,2.979,1.547,10.609-0.915,12.806
		c-1.239,1.104-6.816,1.52-8.533,1.841c-4.231,0.794-7.133,0.691-8.044-3.979c-1.109-5.681,0.025-11.767-0.544-17.504
		c-0.231-2.334-0.966-4.92,0.236-7.113C117.599,136.528,127.264,144.698,130.317,140.906z"/>
</g>
<path style="fill:#FDB827;" d="M116.696,102.907c-2.72,10.303-5.332,28.053-1.547,38.846c8.547,0.533,17.11-0.225,26.117-0.72
	c7.547-0.415,18.711,2.579,22.027-3.752c3.158-6.03-1.737-35.163-7.624-37.807c-5.169-2.32-13.433,1.955-18.451,2.794
	C131.918,103.153,126.402,102.907,116.696,102.907z"/>
<g>
	<path style="fill:#F49D34;" d="M135.772,103.105c-0.112,7.859-1.762,15.657-2.583,23.479c-0.268,2.553,0.998,10.567-0.547,12.611
		c-2.864,3.788-14.423,2.208-18.674,3.785c0.269-10.851-2.577-25.125,1.788-35.291c1.417-3.299,0.276-3.133,4.527-4.137
		C124.167,102.636,129.901,102.767,135.772,103.105z"/>
	<path style="fill:#F49D34;" d="M128.9,20.636c-7.098,1.97-14.364,10.343-7.443,17.039c3.854,3.729,14.489,5.265,19.481,4.754
		C168.003,39.657,141.101,9.587,128.9,20.636z"/>
</g>
<g>
	<path style="fill:#127053;" d="M194.589,43.848c0,6.692-0.053,13.359-0.324,20.032c-0.248,6.112,1.063,12.019-2.137,17.515
		c-2.543,4.368-7.805,7.728-9.248,12.577c-0.709,2.382-1.637,9.002,0.622,9.931c1.674,0.688,4.862-0.714,6.476-1.007
		c3.806-0.693,7.455-0.734,11.303-0.841c6.141-0.171,12.188-0.863,18.338-0.923c13.756-0.134,1.906-16.353-2.245-21.835
		c-5.284-6.979-3.998-18.812-3.998-27.001c0-2.889,0.905-5.938-1.517-7.615C209.241,42.866,202.182,42.221,194.589,43.848z"/>
	<path style="fill:#127053;" d="M179.498,143.633c-1.255,4.399-1.063,12.581-0.923,17.899c0.125,4.793,0.445,7.984,5.531,8.278
		c11.804,0.682,23.654,0.616,35.526,0.616c3.407,0,7.19,0.587,9.473-2.526c2.51-3.424,1.028-9.842,0.907-13.706
		c-0.339-10.84-1.717-14.07-12.662-14.582C206.112,139.089,191.527,137.835,179.498,143.633z"/>
</g>
<g>
	<path style="fill:#0E5B41;" d="M202.372,43.216c2.853,6.016,0.938,15.896,0.938,22.406c0,7.598-0.171,15.217-0.556,22.787
		c-0.137,2.696,0.999,9.137-0.929,11.585c-0.944,1.2-3.175,1.505-4.989,1.625c-3.406,0.225-6.137-0.313-9.522,0.54
		c-2.869,0.723-3.954,1.609-4.621-1.473c-2.323-10.734,10.979-21.388,13.208-31.575c1.675-7.655,1.194-13.932-1.038-21.215
		C193.409,43.153,197.872,41.653,202.372,43.216z"/>
	<path style="fill:#0E5B41;" d="M196.751,140.334c2.713,3.322,0.938,12.872,0.938,17.126c0,2.979,1.547,10.609-0.915,12.805
		c-1.239,1.105-6.815,1.52-8.533,1.842c-4.23,0.793-7.133,0.691-8.044-3.979c-1.109-5.682,0.025-11.767-0.543-17.504
		c-0.232-2.335-0.967-4.921,0.235-7.114C184.032,135.956,193.697,144.126,196.751,140.334z"/>
</g>
<path style="fill:#FDB827;" d="M183.131,102.335c-2.721,10.303-5.333,28.053-1.547,38.845c8.546,0.534,17.109-0.224,26.116-0.72
	c7.547-0.415,18.711,2.58,22.027-3.752c3.158-6.029-1.736-35.163-7.624-37.807c-5.169-2.32-13.433,1.956-18.451,2.794
	C198.352,102.581,192.837,102.335,183.131,102.335z"/>
<g>
	<path style="fill:#F49D34;" d="M202.206,102.532c-0.111,7.859-1.762,15.657-2.583,23.479c-0.268,2.552,0.998,10.567-0.546,12.61
		c-2.864,3.788-14.424,2.209-18.675,3.786c0.269-10.851-2.577-25.125,1.789-35.292c1.416-3.299,0.275-3.133,4.526-4.137
		C190.602,102.062,196.335,102.194,202.206,102.532z"/>
	<path style="fill:#F49D34;" d="M195.334,20.063c-7.098,1.97-14.364,10.343-7.443,17.038c3.854,3.729,14.489,5.265,19.481,4.754
		C234.437,39.084,207.534,9.015,195.334,20.063z"/>
</g>
<g>
	<path style="fill:#B3E2EE;" d="M337.938,122.577c2.101,4.196-0.221,12.177-0.445,17.168c-0.326,7.24-0.128,14.523-0.128,21.775
		c0,7.364-0.72,11.346,7.49,12.893c8.484,1.599,18.948,1.179,27.588,0.726c10.378-0.544,9.283-7.173,9.587-16.72
		c0.267-8.404,0.005-14.896-1.553-23c-0.669-3.478-1.575-6.875-1.392-10.466C366.413,123.351,350.469,117.549,337.938,122.577z"/>
	<path style="fill:#B3E2EE;" d="M396.926,91.651c-0.943,9.051-2.885,19.071,2.882,27.043c4.512,6.235,17.507,10.639,25.324,10.767
		c8.227,0.135,16.244-4.114,19.901-11.378c3.299-6.553,5.921-20.64-1.707-25.17C437.482,89.442,403.197,86.233,396.926,91.651z"/>
</g>
<path style="fill:#C45339;" d="M378.6,147.204c-9.715,7.514-24.947-5.67-34.438,0.28c-3.743,2.347-8.859,20.771-5.564,24.802
	c1.539,1.885,10.264,1.615,12.373,1.715c6.486,0.308,13.158-0.229,19.528,0.075c4.652,0.222,7.73,1.784,10.246-2.762
	C383.85,165.704,381.084,154.943,378.6,147.204z"/>
<path style="fill:#DB3333;" d="M445.605,111.696c-5.104-1.869-12.007-0.688-17.488-1.719c-6.371-1.197-12.415-6.326-19.163-5.167
	c-7.452,1.28-12.196,4.226-8.492,11.722c4.265,8.633,11.195,17.099,21.637,15.753C429.857,131.284,447.683,120.367,445.605,111.696z
	"/>
<path d="M511.892,195.47c-0.395-5.759-1.834-11.367-6.466-15.158c-5.258-4.305-12.717-4.982-19.18-5.941
	c-19.328-2.869-38.901-4.152-58.442-4.333c-0.525-11.601,1.38-23.172-0.02-34.757c9.245-1.273,17.66-6.629,21.908-15.901
	c3.521-7.688,6.166-18.695,0.854-26.188c-4.472-6.308-12.646-5.928-19.511-6.698c-11.169-1.255-29.493-6.518-37.447,4.638
	c-4.745,6.656-4.201,16.789-1.233,24.012c1.706,4.156,4.171,7.451,7.296,9.862c2.807,3.258,6.359,5.964,10.554,7.802
	c2.876,1.26,5.882,2.082,8.907,2.485c-0.703,2.807-1.438,34.751-1.231,34.75c-5.791,0.044-11.581,0.136-17.369,0.293
	c-4.561-0.192-9.122-0.356-13.685-0.478c-0.11-8.962-0.544-17.916-0.989-26.867c-0.301-6.043,1.311-13.879-1.447-19.463
	c-2.68-5.429-8.772-5.736-14.134-5.496c-5.324,0.24-10.527-0.304-15.846-0.534c-5.053-0.22-10.971-0.536-15.658,1.708
	c-4.645,2.224-5.789,6.599-6.108,11.414c-0.393,5.925,0.772,11.795,0.861,17.704c0.105,6.917-0.099,14.481,1.683,21.337
	c-31.672,0.111-63.341,0.31-95.008-0.538c-2.58-0.069-5.16-0.149-7.74-0.235c2.321-7.643,0.757-16.992,0.136-24.504
	c-1.059-12.807-0.798-25.756-1.061-38.598c-0.13-6.322-0.825-12.327-4.333-17.744c-3.036-4.689-7.283-8.501-8.711-14.063
	c-2.397-9.345-1.648-19.521-0.995-29.047c4.384-3.051,6.03-8.451,6.284-13.738c0.552-11.474-8.518-14.757-17.916-14.985
	c-2.841-0.572-6.266-0.229-9.536,0.696c-3.27,0.617-6.41,1.808-8.666,4.242c-1.038,0.834-1.876,1.721-2.419,2.626
	c-2.575,4.3-2.434,11.726-0.496,16.219c1.368,3.173,3.632,4.9,6.34,5.881c-0.112,4.212-0.593,8.399-1.102,12.588
	c-0.791,6.52,0.857,14.068-1.899,20.166c-2.289,5.06-6.498,8.851-8.452,14.164c-2.286,6.215-2.974,13.02-3.383,19.588
	c-0.848,13.612-2.46,27.418-2.515,41.051c-0.019,4.406-0.001,9.375,1.054,13.828c-0.066,0-0.133-0.002-0.198-0.002
	c-2.876,0.002-5.753,0.018-8.628,0.043c1.687-7.322,0.288-15.916-0.291-22.914c-1.059-12.807-0.798-25.756-1.061-38.598
	c-0.129-6.322-0.825-12.327-4.333-17.744c-3.036-4.689-7.283-8.501-8.711-14.063c-2.396-9.345-1.647-19.521-0.995-29.047
	c4.384-3.051,6.029-8.451,6.284-13.738c0.552-11.474-8.518-14.757-17.916-14.985c-2.841-0.572-6.265-0.229-9.536,0.696
	c-3.269,0.617-6.41,1.808-8.666,4.242c-1.039,0.834-1.876,1.721-2.418,2.626c-2.576,4.3-2.435,11.726-0.497,16.219
	c1.368,3.173,3.632,4.9,6.34,5.881c-0.112,4.212-0.592,8.399-1.102,12.588c-0.791,6.52,0.857,14.068-1.899,20.166
	c-2.288,5.06-6.498,8.851-8.452,14.164c-2.286,6.215-2.974,13.02-3.383,19.588c-0.847,13.612-2.46,27.418-2.515,41.051
	c-0.02,4.862-0.006,10.411,1.41,15.193c-0.162,0.004-0.323,0.009-0.484,0.014c-3.92,0.104-7.836,0.188-11.753,0.266
	c2.327-7.645,0.761-17.002,0.14-24.518c-1.059-12.807-0.798-25.756-1.061-38.598c-0.129-6.322-0.825-12.327-4.333-17.744
	c-3.036-4.689-7.284-8.501-8.711-14.063c-2.397-9.345-1.648-19.521-0.995-29.047c4.384-3.051,6.029-8.451,6.283-13.738
	c0.553-11.474-8.517-14.757-17.915-14.985c-2.841-0.572-6.266-0.229-9.536,0.696c-3.27,0.617-6.41,1.808-8.666,4.242
	c-1.039,0.834-1.876,1.721-2.418,2.626c-2.576,4.3-2.435,11.726-0.497,16.219c1.368,3.173,3.632,4.9,6.34,5.881
	c-0.112,4.212-0.593,8.399-1.102,12.588c-0.791,6.52,0.856,14.068-1.899,20.166c-2.289,5.06-6.498,8.851-8.453,14.164
	c-2.285,6.215-2.973,13.02-3.382,19.588c-0.848,13.612-2.46,27.418-2.515,41.051c-0.021,4.952,0,10.613,1.496,15.455
	c-11.697,0.197-24.427,1.969-31.67,11.08c-4.565,5.744-5.813,13.149-6.297,20.281c-0.438,6.447-1.438,13.77-0.115,20.152
	c1.533,7.406,7.28,10.953,14.288,12.564c-1.323,18.902-0.908,37.931-1.163,56.873c-0.283,21.081-0.661,42.161-1.373,63.232
	c-0.723,21.354-1.567,42.689-1.793,64.058c-0.09,8.604-0.935,17.583-0.309,26.16c0.545,7.475,4.423,13.684,11.721,16.144
	c8.457,2.853,18.295,0.689,26.868-0.477c3.393-0.462,6.753-0.956,10.138-1.252c-3.364,1.889-6.705,3.813-9.854,6.047
	c-4.518,3.205-10.629,7.783-11.775,13.587c-1.07,5.419,3.203,8.588,7.859,9.869c6.646,1.829,14.188,1.613,21.005,1.853
	c9.08,0.318,18.159,0.064,27.241,0.072c9.854,0.008,19.707,0.157,29.561,0.156c7.855,0,16.394,0.939,24.166-0.177
	c5.315-0.764,11.576-3.803,11.695-9.947c0.109-5.565-5.266-10.439-9.003-13.894c-2.93-2.708-6.167-5.04-9.507-7.226
	c3.068,0.148,6.124,0.214,9.099,0.317c11.311,0.394,22.615,0.279,33.927,0.46c8.6,0.136,17.115,1.618,25.694,2.114
	c1.012,0.059,2.065,0.123,3.138,0.177c-3.242,1.823-6.457,3.692-9.494,5.847c-4.519,3.205-10.63,7.782-11.776,13.586
	c-1.07,5.42,3.203,8.588,7.859,9.869c6.646,1.829,14.188,1.613,21.005,1.854c9.08,0.318,18.16,0.063,27.242,0.071
	c9.854,0.009,19.706,0.157,29.56,0.157c7.855-0.001,16.394,0.938,24.167-0.178c5.314-0.764,11.575-3.803,11.695-9.947
	c0.108-5.565-5.267-10.439-9.004-13.894c-2.328-2.151-4.854-4.062-7.466-5.855c5.048,0.093,10.104-0.096,14.651,0.068
	c9.705,0.349,19.453,0.604,29.141,1.308c7.648,0.557,15.262,1.614,22.94,1.71c0.196,0.002,0.418,0.007,0.632,0.011
	c-2.404,1.391-4.773,2.839-7.042,4.448c-4.519,3.205-10.63,7.782-11.776,13.586c-1.07,5.419,3.203,8.589,7.859,9.87
	c6.646,1.828,14.188,1.612,21.006,1.852c9.079,0.318,18.159,0.064,27.241,0.072c9.854,0.009,19.706,0.157,29.56,0.156
	c7.855,0,16.394,0.939,24.167-0.177c5.315-0.764,11.576-3.802,11.695-9.947c0.108-5.565-5.266-10.439-9.003-13.894
	c-1.118-1.033-2.287-2.001-3.482-2.938c6.917,0.069,13.764-1.117,18.754-4.271c12.762-8.069,10.565-28.091,11.17-40.998
	c0.992-21.177,3.783-42.413,6.069-63.481c2.325-21.441,2.748-43.034,3.29-64.577c0.316-12.587-0.459-25.09-0.89-37.662
	c-0.183-5.323-0.072-12.302-3.175-16.994c1.537-0.554,3.024-1.22,4.429-2.036C506.96,230.79,512.899,210.206,511.892,195.47z
	 M399.929,104.162c-0.286-2.454-0.368-4.973-0.263-7.493c0.962-1.339,2.367-2.334,4.374-2.727c6.26-1.226,13.078-0.395,19.343,0.332
	c5.345,0.621,11.962,0.27,17.058,1.898c4.234,1.353,5.194,5.498,4.645,10.018c-3.58,1.173-6.823,2.05-11.291,1.197
	c-4.889-0.935-9.538-2.83-14.333-4.123C413.623,101.69,405.347,100.737,399.929,104.162z M400.912,109.435
	c3.336-1.311,6.485-2.599,10.47-2.264c5.05,0.424,9.894,2.421,14.683,3.937c4.768,1.51,11.31,3.155,17.042,2.457
	c-0.865,2.159-1.876,4.068-2.796,5.397c-4.229,6.115-11.595,9.002-18.89,8.346C409.587,126.242,403.374,118.79,400.912,109.435z
	 M377.357,169.682c-1.337-0.016-2.674-0.036-4.011-0.042c-10.235-0.046-20.471-0.033-30.705-0.003
	c1.149-5.221,0.159-10.818,0.079-16.198c-0.018-1.181-0.034-2.354-0.053-3.524c7.085-2.157,13.675-0.557,21.312,0.723
	c3.898,0.652,8.689,1.353,12.954,0.616C377.085,157.397,377.218,163.544,377.357,169.682z M342.023,131.886
	c0.028-0.98,0.084-1.951,0.237-2.92c0.077-0.479,0.571-1.353,0.292-1.228c2.606-1.913,9.058-0.935,11.858-0.813
	c3.925,0.17,7.857,0.696,11.785,0.711c2.313,0.009,4.629-0.358,6.941-0.263c3.098,0.129,3.092,0.609,3.2,3.623
	c0.167,4.6,0.302,9.209,0.427,13.821c-2.467,0.441-4.916,0.746-7.65,0.47c-4.564-0.461-9.02-1.68-13.559-2.314
	c-4.404-0.617-9.11-0.598-13.037,1.117c-0.055-1.543-0.123-3.088-0.226-4.647C342.126,136.931,341.95,134.405,342.023,131.886z
	 M190.364,34.197c0.253-2.512,0.035-5.163,1.479-7.301c2.073-3.07,7.278-2.171,10.451-2.105c3.148,0.065,8.977-0.704,11.672,1.369
	c3.032,2.332,2.228,9.819-0.425,12.185c-2.975,2.652-8.793,1.682-12.414,1.523C195.686,39.633,191.212,39.831,190.364,34.197z
	 M191.683,87.768c3.703-4.218,6.015-8.346,6.455-14.048c0.468-6.038,0.138-12.47-0.118-18.53c-0.118-2.814-0.259-5.573-0.988-8.147
	c0.369,0.033,0.74,0.063,1.113,0.09c3.354,0.239,7.067,0.673,10.644,0.452c-1.426,5.575-0.59,12.407-0.19,17.522
	c0.669,8.575,2.177,15.436,7.494,22.39c2.812,3.677,4.979,6.815,6.038,10.901c-6.623-0.432-13.676,0.596-20.084,1.213
	c-5.795,0.558-11.725,1.261-17.328,2.95C185.718,97.101,187.712,92.292,191.683,87.768z M183.99,108.533
	c0.022-0.313,0.05-0.62,0.076-0.929c6.702-0.002,13.468-1.075,20.122-1.568c6.134-0.456,12.597-0.031,18.763-0.693
	c0.242,5.526,0.073,11.115,0.207,16.625c0.128,5.24,0.338,10.459,0.58,15.677c-7.616-0.754-15.726-0.067-23.306,0.394
	c-6.148,0.374-12.041,1.183-17.939,2.574C182.89,129.928,183.234,119.165,183.99,108.533z M182.319,145.253
	c0.008-0.186,0.014-0.372,0.021-0.559c6.389,0.15,12.763,0.244,19.169,0.233c7.415-0.013,15.181,0.656,22.576-0.112
	c0.135,2.684,0.271,5.368,0.404,8.057c0.21,4.221,0.469,8.718-0.486,12.868c-0.269,1.167-0.692,2.077-1.242,2.802
	c-13.052-0.49-26.097-1.037-39.158-1.221c-0.216-0.484-0.401-1.018-0.55-1.615C181.458,159.265,182.06,151.821,182.319,145.253z
	 M123.441,34.197c0.253-2.512,0.035-5.163,1.479-7.301c2.073-3.07,7.279-2.171,10.451-2.105c3.148,0.065,8.977-0.704,11.672,1.369
	c3.032,2.332,2.228,9.819-0.425,12.185c-2.976,2.652-8.792,1.682-12.413,1.523C128.763,39.633,124.289,39.831,123.441,34.197z
	 M124.761,87.768c3.702-4.218,6.014-8.346,6.455-14.048c0.467-6.038,0.137-12.47-0.119-18.53c-0.118-2.814-0.259-5.573-0.988-8.147
	c0.369,0.033,0.74,0.063,1.113,0.09c3.354,0.239,7.068,0.673,10.644,0.452c-1.426,5.575-0.59,12.407-0.19,17.522
	c0.669,8.575,2.177,15.436,7.494,22.39c2.813,3.677,4.979,6.815,6.038,10.901c-6.624-0.432-13.676,0.596-20.084,1.213
	c-5.795,0.558-11.725,1.261-17.327,2.95C118.796,97.101,120.789,92.292,124.761,87.768z M117.067,108.533
	c0.022-0.313,0.05-0.62,0.076-0.929c6.703-0.002,13.469-1.075,20.123-1.568c6.133-0.456,12.596-0.031,18.762-0.693
	c0.242,5.526,0.073,11.115,0.207,16.625c0.129,5.24,0.338,10.459,0.58,15.677c-7.616-0.754-15.726-0.067-23.306,0.394
	c-6.149,0.374-12.041,1.183-17.939,2.574C115.968,129.928,116.312,119.165,117.067,108.533z M115.397,145.253
	c0.008-0.186,0.014-0.372,0.021-0.559c6.391,0.15,12.764,0.244,19.17,0.233c7.415-0.013,15.18,0.656,22.576-0.112
	c0.135,2.684,0.271,5.368,0.405,8.057c0.209,4.221,0.468,8.718-0.487,12.868c-0.145,0.632-0.34,1.182-0.57,1.675
	c-13.088,0.209-26.173,0.589-39.258,0.956c-0.479-0.722-0.857-1.597-1.121-2.665C114.535,159.265,115.136,151.821,115.397,145.253z
	 M53.894,34.197c0.254-2.512,0.035-5.163,1.48-7.301c2.073-3.07,7.278-2.171,10.451-2.105c3.148,0.065,8.977-0.704,11.672,1.369
	c3.032,2.332,2.227,9.819-0.426,12.185c-2.975,2.652-8.791,1.682-12.413,1.523C59.216,39.633,54.742,39.831,53.894,34.197z
	 M55.213,87.768c3.702-4.218,6.015-8.346,6.456-14.048c0.467-6.038,0.136-12.47-0.119-18.53c-0.118-2.814-0.26-5.573-0.989-8.147
	c0.37,0.033,0.741,0.063,1.114,0.09c3.354,0.239,7.067,0.673,10.643,0.452c-1.425,5.575-0.589,12.407-0.19,17.522
	c0.669,8.575,2.177,15.436,7.495,22.39c2.812,3.677,4.979,6.815,6.037,10.901c-6.623-0.432-13.676,0.596-20.084,1.213
	c-5.794,0.558-11.724,1.261-17.327,2.95C49.248,97.101,51.241,92.292,55.213,87.768z M47.521,108.533
	c0.021-0.313,0.05-0.62,0.076-0.929c6.702-0.002,13.469-1.075,20.122-1.568c6.134-0.456,12.597-0.031,18.763-0.693
	c0.242,5.526,0.072,11.115,0.207,16.625c0.129,5.24,0.338,10.459,0.58,15.677c-7.616-0.754-15.726-0.067-23.306,0.394
	c-6.149,0.374-12.041,1.183-17.939,2.574C46.42,129.928,46.765,119.165,47.521,108.533z M45.85,145.253
	c0.008-0.186,0.014-0.372,0.021-0.559c6.39,0.15,12.764,0.244,19.17,0.233c7.415-0.013,15.18,0.656,22.576-0.112
	c0.135,2.684,0.271,5.368,0.404,8.057c0.21,4.221,0.469,8.718-0.486,12.868c-0.337,1.466-0.918,2.528-1.69,3.32
	c-12.34,0.165-24.677,0.181-37.027-0.089c-0.224-0.005-0.45-0.01-0.676-0.015c-0.69-0.817-1.216-1.876-1.557-3.251
	C44.988,159.265,45.589,151.821,45.85,145.253z M143.35,472.075c0.952,0.883,6.329,5.336,5.869,6.715
	c-0.991,2.971-17.256,1.212-19.753,1.256c-8.743,0.15-17.488,0.131-26.232,0.15c-16.687,0.038-33.55,1.135-50.191-0.491
	c-1.69-0.165-4.667-0.153-6.178-1.063c-0.899-0.543-0.85-0.146,1.034-1.649c1.168-0.933,2.139-2.215,3.284-3.198
	c5.021-4.312,11.084-7.334,16.789-10.619c9.754-5.617,22.979-13.997,24.957-26.08c1.206-7.361-0.438-15.326-0.731-22.715
	c-0.379-9.512-0.502-19.041-0.538-28.561c-0.059-15.251-0.686-30.953,0.127-46.162c0.225-4.207-0.63-7.297,4.287-8.498
	c3.46-0.844,7.201,1.652,8.515,4.738c2.298,5.4,0.681,11.921,0.56,17.564c-0.154,7.17,0.182,14.393-0.059,21.58
	c-0.561,16.791-1.262,33.462-0.757,50.258c0.18,5.991-0.112,12.345,2.648,17.86c2.706,5.411,7.883,9.417,12.709,12.843
	c5.013,3.558,10.398,6.542,15.539,9.905C138.083,467.775,140.843,469.754,143.35,472.075z M49.636,306.793
	c2.814,1.339,5.956,2.117,8.985,2.673c8.618,1.58,17.43,1.676,26.163,1.723c9.017,0.049,17.967,0.6,26.971,0.936
	c8.796,0.327,17.945,0.868,26.716,0.009c3.239-0.317,6.499-1.001,9.281-2.587c3.182,3.22,4.325,5.663-0.588,9.072
	c-5.538,3.844-13.495,3.881-19.968,4.004c-14.727,0.277-29.559,0.235-44.285-0.062c-5.994-0.121-11.971-0.604-17.961-0.736
	c-4.35-0.097-8.822,0.079-13.09-0.904c-4.399-1.013-6.927-3.284-6.377-8.091C45.812,309.968,47.5,308.172,49.636,306.793z
	 M50.076,282.929c1.052-8.263,4.747-15.442,11.757-20.158c13.578-9.137,32.42-8.791,48.039-7.223
	c9.559,0.959,20.977,2.213,28.57,8.629c0.318,0.269,0.621,0.546,0.909,0.83c1.37,1.924,2.485,4.158,3.237,6.836
	c1.658,5.906,1.64,12.277,2.125,18.356c0.238,2.99,1.203,7.862-1.107,10.313c-2.536,2.688-8.912,1.955-12.061,1.984
	c-7.354,0.068-14.708-0.026-22.055-0.346c-14.441-0.627-29.25,0.004-43.608-1.597c-4.612-0.515-12.272-0.728-15.07-5.129
	C48.72,292.134,49.618,286.527,50.076,282.929z M296.954,475.283c0.953,0.883,6.328,5.336,5.869,6.714
	c-0.99,2.973-17.256,1.213-19.752,1.256c-8.744,0.151-17.488,0.132-26.233,0.152c-16.687,0.037-33.55,1.134-50.19-0.492
	c-1.691-0.164-4.667-0.153-6.179-1.064c-0.899-0.542-0.85-0.145,1.034-1.648c1.168-0.933,2.139-2.215,3.283-3.197
	c5.023-4.313,11.085-7.336,16.79-10.62c9.755-5.616,22.979-13.997,24.958-26.08c1.205-7.36-0.438-15.326-0.732-22.715
	c-0.379-9.512-0.502-19.04-0.538-28.56c-0.06-15.252-0.685-30.953,0.127-46.162c0.225-4.208-0.63-7.298,4.288-8.498
	c3.459-0.845,7.2,1.651,8.514,4.738c2.299,5.4,0.682,11.92,0.56,17.563c-0.154,7.171,0.182,14.393-0.059,21.581
	c-0.56,16.791-1.261,33.461-0.757,50.257c0.18,5.991-0.111,12.345,2.648,17.86c2.707,5.41,7.883,9.417,12.709,12.843
	c5.014,3.558,10.399,6.542,15.539,9.905C291.688,470.983,294.448,472.962,296.954,475.283z M203.24,310.001
	c2.815,1.338,5.956,2.117,8.985,2.672c8.619,1.581,17.43,1.678,26.164,1.724c9.016,0.048,17.967,0.6,26.971,0.935
	c8.795,0.328,17.944,0.869,26.715,0.01c3.24-0.317,6.5-1.001,9.282-2.587c3.181,3.22,4.325,5.663-0.589,9.073
	c-5.537,3.843-13.494,3.881-19.967,4.002c-14.727,0.277-29.56,0.236-44.286-0.061c-5.994-0.121-11.971-0.604-17.961-0.736
	c-4.35-0.097-8.822,0.08-13.089-0.904c-4.4-1.013-6.927-3.283-6.377-8.09C199.416,313.176,201.105,311.38,203.24,310.001z
	 M203.681,286.137c1.052-8.263,4.748-15.442,11.757-20.158c13.579-9.137,32.42-8.791,48.039-7.223
	c9.559,0.959,20.977,2.214,28.571,8.628c0.318,0.27,0.62,0.547,0.908,0.83c1.371,1.925,2.485,4.16,3.237,6.837
	c1.659,5.906,1.64,12.276,2.126,18.356c0.238,2.99,1.203,7.862-1.108,10.313c-2.536,2.688-8.912,1.955-12.06,1.984
	c-7.354,0.069-14.709-0.026-22.056-0.345c-14.44-0.628-29.25,0.004-43.608-1.598c-4.612-0.514-12.272-0.729-15.07-5.129
	C202.325,295.342,203.223,289.735,203.681,286.137z M456.428,485.206c-0.989,2.972-17.256,1.213-19.752,1.256
	c-8.743,0.15-17.489,0.131-26.233,0.15c-16.686,0.038-33.549,1.135-50.19-0.49c-1.691-0.166-4.667-0.154-6.179-1.064
	c-0.899-0.543-0.85-0.146,1.035-1.649c1.167-0.932,2.139-2.215,3.283-3.198c5.022-4.312,11.084-7.334,16.789-10.619
	c9.754-5.616,22.979-13.997,24.958-26.08c1.206-7.36-0.438-15.326-0.732-22.715c-0.379-9.512-0.501-19.04-0.538-28.561
	c-0.059-15.251-0.684-30.952,0.127-46.161c0.225-4.208-0.63-7.298,4.288-8.498c3.46-0.845,7.2,1.651,8.515,4.737
	c2.298,5.4,0.68,11.921,0.559,17.564c-0.154,7.17,0.182,14.393-0.059,21.581c-0.561,16.79-1.262,33.461-0.757,50.257
	c0.18,5.991-0.111,12.345,2.648,17.86c2.707,5.411,7.883,9.417,12.71,12.843c5.013,3.558,10.398,6.542,15.539,9.905
	c2.854,1.867,5.614,3.846,8.12,6.167C451.512,479.374,456.888,483.827,456.428,485.206z M356.845,313.21
	c2.815,1.338,5.956,2.116,8.986,2.672c8.618,1.58,17.429,1.677,26.163,1.723c9.017,0.049,17.966,0.6,26.971,0.936
	c8.795,0.328,17.944,0.868,26.716,0.01c3.239-0.318,6.499-1.002,9.28-2.588c3.183,3.22,4.325,5.663-0.588,9.072
	c-5.538,3.844-13.495,3.882-19.967,4.004c-14.727,0.277-29.559,0.235-44.286-0.062c-5.994-0.121-11.971-0.604-17.961-0.736
	c-4.35-0.097-8.821,0.08-13.089-0.903c-4.399-1.014-6.927-3.285-6.377-8.091C353.021,316.384,354.71,314.588,356.845,313.21z
	 M357.285,289.345c1.052-8.263,4.748-15.442,11.757-20.158c13.579-9.137,32.42-8.791,48.039-7.223
	c9.559,0.959,20.977,2.213,28.571,8.629c0.318,0.269,0.62,0.546,0.909,0.83c1.37,1.924,2.484,4.159,3.236,6.836
	c1.659,5.906,1.641,12.276,2.125,18.356c0.239,2.99,1.204,7.862-1.107,10.313c-2.535,2.688-8.911,1.955-12.06,1.984
	c-7.354,0.069-14.708-0.026-22.056-0.346c-14.44-0.627-29.25,0.004-43.608-1.597c-4.612-0.515-12.272-0.728-15.069-5.129
	C355.93,298.55,356.827,292.943,357.285,289.345z M479.879,346.906c-1.598,19.282-4.013,38.503-5.774,57.774
	c-0.764,8.365-1.561,16.693-1.777,25.092c-0.18,6.923,0.005,14.525-2.662,21.045c-4.811,11.76-23.874,4.121-33.875,6.311
	c-5.115-3.094-10.769-6.763-13.251-11.908c-1.891-3.919-1.505-8.611-1.618-12.849c-0.135-5.059-0.48-10.093-0.465-15.158
	c0.033-10.518,0.625-21.038,0.967-31.549c0.321-9.874,0.813-19.896,0.758-29.763c-0.023-4.382-2.541-15.584,2.123-18.479
	c2.604-1.607,11.563,0.202,14.825,0.018c4.432-0.251,8.842-0.749,13.126-1.959c6.08-1.718,12.703-5.95,14.476-12.416
	c1.542-5.624-1.298-9.768-5.69-12.862c-1.806-1.272-0.751-2.596-0.121-4.182c1.439-3.622,0.658-7.266,0.461-11.02
	c-0.195-3.715-0.197-7.438-0.454-11.15c-0.509-7.39-2.214-14.75-7.641-20.14c-8.328-8.271-20.842-10.472-32.024-11.916
	c-20.373-2.631-45.266-2.534-61.502,12.021c-8.248,7.395-11.559,17.822-12.414,28.576c-0.42,5.275-0.191,10.888,2.895,15.402
	c0.248,0.363,0.513,0.706,0.787,1.037c-5.903,3.774-8.503,13.922-3.801,20.58c3.526,4.992,10.064,6.174,15.744,6.682
	c7.567,0.675,15.334,0.753,22.924,1.025c1.907,0.068,3.814,0.1,5.723,0.139c-1.184,17.928-1.079,36.083-1.348,54.026
	c-0.143,9.524-0.147,19.044,0.171,28.564c0.239,7.166,2.75,16.881,0.401,23.789c-4.911,14.45-17.582,12.403-29.718,12.062
	c-7.579-0.213-15.095-1.267-22.655-1.739c-9.965-0.622-19.972-0.743-29.953-0.851c-8.158-0.088-17.942-1.135-26.17,0.907
	c-5.157-3.114-10.902-6.805-13.41-12.004c-1.891-3.919-1.506-8.61-1.618-12.849c-0.134-5.059-0.48-10.093-0.465-15.158
	c0.032-10.518,0.625-21.038,0.967-31.549c0.321-9.874,0.813-19.896,0.758-29.764c-0.023-4.381-2.541-15.583,2.122-18.479
	c2.605-1.607,11.563,0.202,14.826,0.018c4.432-0.251,8.841-0.749,13.125-1.959c6.081-1.719,12.704-5.95,14.477-12.416
	c0.744-2.715,0.503-5.615-0.84-8.105c-0.633-1.172-1.519-2.361-2.577-3.186c-0.736-0.574-1.815-0.793-2.275-1.634
	c-1.238-2.262,0.019-5.595,0.218-7.979c0.307-3.658-0.078-7.217-0.171-10.86c-0.084-3.291,0.052-6.568-0.241-9.855
	c-0.593-6.653-2.736-12.944-7.559-17.734c-8.328-8.271-20.842-10.472-32.024-11.916c-20.374-2.631-45.267-2.534-61.502,12.02
	c-8.249,7.395-11.558,17.823-12.414,28.577c-0.42,5.274-0.191,10.888,2.895,15.402c0.248,0.363,0.513,0.706,0.787,1.036
	c-5.903,3.775-8.503,13.923-3.801,20.58c3.526,4.992,10.064,6.176,15.744,6.683c7.567,0.675,15.333,0.753,22.923,1.025
	c1.908,0.068,3.816,0.101,5.725,0.139c-1.186,17.928-1.08,36.083-1.349,54.026c-0.144,9.524-0.147,19.044,0.171,28.564
	c0.239,7.166,2.749,16.88,0.401,23.789c-1.292,3.801-4.462,7.186-8.018,10.05c-7.494-0.9-15.148,0.49-22.753-0.104
	c-7.926-0.621-15.802-1.862-23.762-1.972c-10.321-0.143-20.645,0.116-30.967-0.049c-8.834-0.142-18.288-1.297-27.177-0.183
	c-3.812-2.558-7.392-5.556-9.231-9.367c-1.89-3.919-1.505-8.611-1.617-12.849c-0.135-5.059-0.48-10.093-0.465-15.159
	c0.032-10.518,0.625-21.037,0.967-31.548c0.321-9.874,0.813-19.896,0.758-29.764c-0.023-4.381-2.541-15.583,2.122-18.479
	c2.604-1.607,11.563,0.202,14.825,0.018c4.432-0.251,8.842-0.749,13.126-1.96c6.081-1.718,12.704-5.949,14.476-12.415
	c1.188-4.331-0.291-8.644-3.684-11.518c-2.068-1.753-1.441-3.611-1.371-6.313c0.068-2.678,0.142-5.367-0.152-8.035
	c-0.164-1.479-0.307-2.977-0.449-4.481c0.074-10.458,0.442-20.831-7.789-29.006c-8.327-8.271-20.842-10.472-32.023-11.916
	c-20.375-2.631-45.267-2.534-61.502,12.02c-8.249,7.395-11.559,17.823-12.414,28.577c-0.42,5.275-0.191,10.888,2.895,15.402
	c0.248,0.363,0.512,0.705,0.787,1.037c-5.903,3.774-8.504,13.922-3.801,20.579c3.525,4.993,10.064,6.175,15.743,6.683
	c7.567,0.675,15.334,0.753,22.924,1.025c1.907,0.068,3.815,0.1,5.724,0.139c-1.185,17.928-1.08,36.083-1.348,54.026
	c-0.144,9.524-0.148,19.044,0.171,28.564c0.239,7.166,2.749,16.88,0.401,23.788c-1.076,3.166-4.086,7.683-7.025,9.408
	c-3.354,1.97-9.297,0.587-12.851,0.393c-4.482-0.246-8.827,0.198-13.269,0.773c-7.191,0.932-15.14,2.741-22.408,1.712
	c-8.679-1.229-6.648-9.62-6.519-16.159c0.188-9.454,0.063-18.919,0.209-28.376c0.579-37.65,2.388-75.257,2.626-112.917
	c0.123-19.29,0.668-38.7-0.6-57.963c6.401,0.309,12.863-0.226,17.59-0.437c21.315-0.951,42.497-2.601,63.855-2.852
	c22.398-0.264,44.802,0.103,67.189,0.848c44.752,1.487,89.41,4.843,134.166,6.237c44.113,1.373,88.387,1.213,132.438,4.09
	c10.181,0.665,20.364,1.741,30.58,1.479c4.015-0.103,8.303-0.285,12.467-0.978C482.164,277.317,482.764,312.095,479.879,346.906z
	 M499.73,206.999c-1.313,7.13-4.57,16.009-10.245,20.906c-5.419,4.678-14.148,4.563-20.882,4.699
	c-9.541,0.191-19.057-0.758-28.567-1.377c-40.659-2.646-81.535-2.486-122.254-3.604c-41.029-1.126-81.959-3.898-122.959-5.66
	c-40.63-1.746-81.354-2.564-121.999-0.816c-18.367,0.79-37.835,4.561-56.111,1.207c-6.939-1.272-6.192-5.963-5.913-11.972
	c0.306-6.564,0.04-13.746,2.568-19.934c3.883-9.502,16.634-10.99,25.567-10.78c12.54,0.295,25.227-0.271,37.844,0.817
	c17.916,1.546,35.948,1.087,53.904,1.508c36.765,0.863,73.627-1.897,110.401-2.076c36.296-0.176,72.686,0.197,109.02,0.031
	c35.54-0.162,71.003,1.822,106.511,2.088c7.488,0.647,14.968,1.456,22.402,2.547c5.232,0.769,14.683,0.767,19.034,4.404
	C502.306,192.544,500.576,202.4,499.73,206.999z"/>
<g>
</g>
<g>
</g>
<g>
</g>
<g>
</g>
<g>
</g>
<g>
</g>
<g>
</g>
<g>
</g>
<g>
</g>
<g>
</g>
<g>
</g>
<g>
</g>
<g>
</g>
<g>
</g>
<g>
</g>
</svg>
