<?xml version="1.0" encoding="iso-8859-1"?>
<!-- Generator: Adobe Illustrator 19.0.0, SVG Export Plug-In . SVG Version: 6.00 Build 0)  -->
<svg version="1.1" id="Layer_1" xmlns="http://www.w3.org/2000/svg" xmlns:xlink="http://www.w3.org/1999/xlink" x="0px" y="0px"
	 viewBox="0 0 496 496" style="enable-background:new 0 0 496 496;" xml:space="preserve">
<path style="fill:#E5DAAE;" d="M290.4,207.2L285.6,104h-75.2l-4.8,103.2C137.6,226.4,88,288.8,88,361.6V488h320V361.6
	C408,288.8,358.4,226.4,290.4,207.2z"/>
<path style="fill:#D3C89B;" d="M408,488V361.6c0-73.6-49.6-136-117.6-154.4L285.6,104h-75.2l-4.8,102.4"/>
<polyline style="fill:#C1B68A;" points="290.4,207.2 285.6,104 210.4,104 205.6,207.2 "/>
<path style="fill:#9E561B;" d="M128,256c-25.6,30.4-40,66.4-40,105.6V488h320V361.6c0-39.2-16.8-73.6-40-105.6H128z"/>
<path style="fill:#894410;" d="M408,488V361.6c0-39.2-13.6-74.4-40-105.6H128"/>
<path style="fill:#F4CF31;" d="M320,424v-64c0-41.6-30.4-75.2-72-75.2s-72,33.6-72,75.2v64H320z"/>
<path style="fill:#CCA602;" d="M320,424v-64c0-41.6-30.4-75.2-72-75.2s-72,33.6-72,75.2"/>
<path style="fill:#F4CF31;" d="M299.2,104c0,4.8-4,8.8-8.8,8.8h-85.6c-4.8,0-8-4-8-8V104c0-4.8,4-6.4,8.8-6.4h85.6
	C295.2,96,299.2,99.2,299.2,104L299.2,104z"/>
<path style="fill:#CCA602;" d="M196.8,104c0-4.8,4-8,8.8-8h85.6c4.8,0,8.8,3.2,8.8,8l0,0c0,4.8-4,8.8-8.8,8.8"/>
<rect x="176" y="432" style="fill:#8E1111;" width="144" height="24"/>
<polyline style="fill:#660606;" points="320,456 320,432 176,432 "/>
<rect x="229.545" y="190.423" transform="matrix(-0.7071 0.7072 -0.7072 -0.7071 570.9302 181.1375)" style="fill:#C93131;" width="36.802" height="36.802"/>
<polyline style="fill:#A51919;" points="248,183.2 273.6,208.8 248,235.2 "/>
<g>
	
		<rect x="190.421" y="347.679" transform="matrix(-0.7071 0.7071 -0.7071 -0.7071 585.4011 464.8768)" style="fill:#9E561B;" width="12" height="12"/>
	
		<rect x="190.534" y="372.415" transform="matrix(-0.7071 0.7071 -0.7071 -0.7071 603.0835 507.0247)" style="fill:#9E561B;" width="12" height="12"/>
	
		<rect x="190.082" y="396.61" transform="matrix(-0.7074 0.7068 -0.7068 -0.7074 619.3592 548.827)" style="fill:#9E561B;" width="12" height="12"/>
</g>
<g>
	
		<rect x="293.85" y="348.218" transform="matrix(-0.7071 0.7071 -0.7071 -0.7071 762.3464 392.6623)" style="fill:#894410;" width="12" height="12"/>
	
		<rect x="293.962" y="372.962" transform="matrix(-0.7071 0.7071 -0.7071 -0.7071 780.0344 434.8238)" style="fill:#894410;" width="12" height="12"/>
	
		<rect x="293.55" y="397.108" transform="matrix(-0.7074 0.7068 -0.7068 -0.7074 796.3727 476.546)" style="fill:#894410;" width="12" height="12"/>
</g>
<g>
	<path style="fill:#D3915F;" d="M120,472c0,4-3.2,8-8,8l0,0c-4,0-8-3.2-8-8V352c0-4,3.2-8,8-8l0,0c4,0,8,3.2,8,8V472z"/>
	<path style="fill:#D3915F;" d="M121.6,318.4c0,4-3.2,7.2-7.2,7.2l0,0c-4,0-7.2-3.2-7.2-7.2l0,0c0-4,3.2-7.2,7.2-7.2l0,0
		C118.4,311.2,121.6,314.4,121.6,318.4L121.6,318.4z"/>
</g>
<polygon style="fill:#C93131;" points="208,168 288,168 286.4,128 209.6,128 "/>
<polyline style="fill:#A51919;" points="288,168 286.4,128 216,128 "/>
<path style="fill:#D3915F;" d="M368.8,260c0,1.6-1.6,4-4,4H130.4c-2.4,0-4-2.4-4-4l0,0c0-1.6,1.6-4,4-4h234.4
	C367.2,256,368.8,258.4,368.8,260L368.8,260z"/>
<path style="fill:#F4CF31;" d="M308.8,88c4.8-8,7.2-17.6,7.2-28c0-33.6-28-60-62.4-60h-11.2C208,0,180,26.4,180,60
	c0,10.4,2.4,20,7.2,28H308.8z"/>
<path style="fill:#CCA602;" d="M248,88h60.8c4.8-8,7.2-17.6,7.2-28c0-33.6-28-60-62.4-60H240"/>
<polygon style="fill:#3D2525;" points="280,312 216,312 216,344 232,344 232,408 264,408 264,344 280,344 "/>
<polyline style="fill:#190D0D;" points="264,408 264,344 280,344 280,312 224,312 "/>
<ellipse transform="matrix(-0.6486 0.7611 -0.7611 -0.6486 366.6708 -108.7111)" style="fill:#FFF2BB;" cx="208.43" cy="30.285" rx="23.199" ry="6.4"/>
<ellipse transform="matrix(-0.4316 -0.9021 0.9021 -0.4316 52.1879 498.6122)" style="fill:#F7F1DA;" cx="183.187" cy="232.864" rx="5.6" ry="24.001"/>
<path style="fill:#894410;" d="M408,492c0,2.4-1.6,4-4,4H92c-2.4,0-4-1.6-4-4l0,0c0-2.4,1.6-4,4-4h312C406.4,488,408,489.6,408,492
	L408,492z"/>
<g>
</g>
<g>
</g>
<g>
</g>
<g>
</g>
<g>
</g>
<g>
</g>
<g>
</g>
<g>
</g>
<g>
</g>
<g>
</g>
<g>
</g>
<g>
</g>
<g>
</g>
<g>
</g>
<g>
</g>
</svg>
