<?xml version="1.0" encoding="iso-8859-1"?>
<!-- Generator: Adobe Illustrator 19.0.0, SVG Export Plug-In . SVG Version: 6.00 Build 0)  -->
<svg version="1.1" id="Layer_1" xmlns="http://www.w3.org/2000/svg" xmlns:xlink="http://www.w3.org/1999/xlink" x="0px" y="0px"
	 viewBox="0 0 496 496" style="enable-background:new 0 0 496 496;" xml:space="preserve">
<path style="fill:#70D8E5;" d="M327.2,144L327.2,144h-1.6c0,0,1.6,0,0,0h-4.8c-10.4-8-30.4-9.6-32.8-40.8l0,0V12.8
	c0-5.6-3.2-12.8-8.8-12.8h-62.4c-5.6,0-8.8,7.2-8.8,12.8V104l0,0c-2.4,31.2-22.4,32-32.8,40h-4.8c-1.6,0,0,0,0,0h-1.6l0,0
	c-13.6,0-24.8,7.2-24.8,20.8v304.8c0,13.6,3.2,25.6,16.8,25.6h173.6c13.6,0,16.8-12,16.8-25.6V164.8C352,151.2,340.8,144,327.2,144z
	"/>
<path style="fill:#50CAD3;" d="M352,384V164.8c0-13.6-11.2-20.8-24.8-20.8l0,0h-1.6c0,0,1.6,0,0,0h-4.8c-10.4-8-30.4-9.6-32.8-40.8
	l0,0V12.8c0-5.6-3.2-12.8-8.8-12.8h-62.4c-5.6,0-8.8,7.2-8.8,12.8V104l0,0c-2.4,31.2-22.4,32-32.8,40h-4.8c-1.6,0,0,0,0,0l0,0H168"
	/>
<path style="fill:#44B2CC;" d="M352,164.8c0-13.6-11.2-20.8-24.8-20.8h-1.6l0,0c0,0,1.6,0,0,0h-4.8c-10.4-8-30.4-9.6-32.8-40.8l0,0
	V12.8c0-5.6-3.2-12.8-8.8-12.8h-62.4c-5.6,0-8.8,7.2-8.8,12.8V104l0,0"/>
<path style="fill:#0B393A;" d="M248,105.6l40-40.8v-52c0-5.6-3.2-12.8-8.8-12.8h-62.4c-5.6,0-8.8,7.2-8.8,12.8v52L248,105.6z"/>
<polygon style="fill:#DBC772;" points="208,47.2 208,64.8 248,105.6 288,64.8 288,47.2 248,88 "/>
<path style="fill:#36A1BA;" d="M144,232v238.4c0,13.6,3.2,25.6,16.8,25.6h173.6c13.6,0,16.8-12,16.8-25.6V232H144z"/>
<path style="fill:#007EA0;" d="M335.2,496c13.6,0,16.8-12,16.8-25.6V232H144"/>
<path style="fill:#A5E9EF;" d="M352,237.6c0,1.6-0.8,2.4-2.4,2.4H146.4c-1.6,0-2.4-0.8-2.4-2.4v-2.4c0-1.6,0.8-2.4,2.4-2.4h202.4
	c1.6,0,2.4,0.8,2.4,2.4v2.4H352z"/>
<circle style="fill:#DBC772;" cx="248" cy="264" r="65.6"/>
<path style="fill:#C6AF4E;" d="M248,199.2c36,0,65.6,29.6,65.6,65.6S284,330.4,248,330.4"/>
<path style="fill:#164B4F;" d="M296,31.2c0,4.8-8,8.8-16,8.8h-64c-8,0-16-4-16-8.8V9.6c0-4.8,8-9.6,16-9.6h64c8,0,16,4.8,16,9.6
	V31.2z"/>
<path style="fill:#50CAD3;" d="M168,464.8c0,3.2-0.8,6.4-4,6.4l0,0c-3.2,0-4-3.2-4-6.4v-160c0-3.2,0.8-6.4,4-6.4l0,0
	c3.2,0,4,3.2,4,6.4V464.8z"/>
<path style="fill:#B3F0F2;" d="M168,224c0,0.8-0.8,2.4-4,2.4l0,0c-3.2,0-4-0.8-4-2.4v-52c0-0.8,0.8-2.4,4-2.4l0,0c3.2,0,4,0.8,4,2.4
	V224z"/>
<path style="fill:#164B4F;" d="M248,264v-36c-24,0-36,16.8-36,36c0,20,16,36,36,36s36-12,36-36H248z"/>
<g>
	<path style="fill:#DCFFFC;" d="M232,342.4c0,0-0.8,0-1.6,0c-0.8,0-0.8,0-1.6,0.8c-0.8,0-0.8,0.8-1.6,0.8c-0.8,0-0.8,0.8-0.8,0.8
		c-0.8,0-0.8,0.8-1.6,1.6c-0.8,0.8-0.8,0.8-1.6,1.6c0.8,0,2.4,0,3.2,0c0.8,0,2.4,0,3.2,0c0.8,0,2.4,0,3.2,0c0.8,0,2.4,0,3.2,0h0.8
		c0,0,0.8,0.8,0,0.8c0,0,0,0.8-0.8,0.8h-0.8c-0.8,0-1.6,0-2.4,0s-1.6,0-2.4-0.8c-0.8,0-2.4,0-3.2,0c-0.8,0-2.4,0-3.2,0
		c-0.8,0-1.6,0-1.6,0c-0.8,0-0.8,0-1.6,0c-1.6,1.6-3.2,3.2-4.8,4.8c-1.6,1.6-2.4,3.2-4,4.8c-1.6,1.6-2.4,3.2-4,5.6
		c-0.8,1.6-2.4,4-3.2,5.6c-0.8,0.8-0.8,1.6-1.6,3.2c0,0.8-0.8,1.6-0.8,3.2c0,0.8,0,0.8,0,1.6c0,0.8,0,0.8,0,1.6c0,0,0,0.8,0.8,0.8
		v0.8c0,0.8-0.8,0.8-0.8,0.8h-0.8l-0.8-0.8c0,0,0-0.8-0.8-0.8c0-0.8-0.8-1.6,0-3.2c0-0.8,0.8-2.4,0.8-3.2c0.8-2.4,1.6-4,2.4-5.6
		s2.4-4,3.2-5.6c1.6-1.6,2.4-4,4-5.6s3.2-3.2,4-4.8l2.4-2.4c-1.6,0-2.4,0.8-4,0.8s-2.4,0.8-4,0.8c-2.4,0.8-4,0.8-6.4,1.6
		c-2.4,0.8-4,1.6-6.4,1.6c-0.8,0-2.4,0.8-3.2,0.8c-0.8,0-2.4,0.8-3.2,0.8h-0.8c0,0-0.8,0-0.8-0.8v-0.8c0,0,0-0.8,0.8-0.8
		c4-0.8,8.8-2.4,12.8-3.2c4-0.8,8.8-2.4,12.8-3.2c0.8,0,0.8,0,1.6,0c0.8,0,0.8,0,1.6,0c0.8-0.8,1.6-1.6,3.2-2.4
		c0.8-0.8,2.4-1.6,3.2-2.4c0.8-0.8,1.6-0.8,2.4-1.6c0.8,0,1.6-0.8,3.2,0c0,0,0.8,0,0.8,0.8v0.8c0,0,0,0.8-0.8,0.8
		C232.8,342.4,232,342.4,232,342.4z"/>
	<path style="fill:#DCFFFC;" d="M221.6,365.6c0.8,0,1.6-0.8,2.4-0.8c0.8,0,1.6-0.8,2.4-0.8c0.8,0,0.8-0.8,1.6-0.8c0.8,0,0.8,0,1.6,0
		c0,0,0.8,0.8,0,0.8h0.8c0.8,0.8,0.8,0.8,0.8,1.6c0,0.8-0.8,1.6-0.8,2.4c0,0,0,0,0.8,0.8c0.8,0,1.6,0.8,2.4,0.8c0.8,0,1.6,0,2.4,0
		h0.8c0,0,0.8,0,1.6-0.8c0.8-0.8,0.8,0,0.8,0h0.8v0.8c0,0-0.8,0-0.8,0.8h-0.8h-0.8c-0.8,0-0.8,0-1.6,0.8c-0.8,0-1.6,0-1.6,0
		c-0.8,0-1.6,0-1.6,0c-0.8,0-0.8-0.8-1.6-0.8l-1.6,1.6c-0.8,0.8-0.8,0.8-1.6,1.6c-0.8,0.8-0.8,0.8-1.6,0.8c-0.8,0-1.6,0.8-2.4,0.8
		s-1.6,0-1.6,0c-0.8,0-1.6-0.8-1.6-1.6c0-0.8,0-0.8,0-1.6c0-0.8,0.8-1.6,0.8-1.6c0.8-0.8,0.8-0.8,1.6-1.6l0.8-0.8
		c-0.8,0-1.6,0.8-2.4,0.8s-1.6,0.8-2.4,1.6c0,0,0,0-0.8,0h-0.8h-0.8c0,0,0,0-0.8,0c0,0,0,0,0-0.8c0,0,0-0.8,0.8-0.8L221.6,365.6z
		 M224,367.2l-0.8,0.8c-0.8,0.8-0.8,0.8-0.8,1.6c0,0.8-0.8,0.8-0.8,1.6c0,0.8,0,0.8,0.8,0.8c0.8,0,1.6,0,3.2,0
		c0.8,0,1.6-0.8,2.4-1.6l0.8-0.8l0.8-0.8c0-0.8,0-0.8,0-1.6c0-0.8,0-0.8,0.8-1.6c-0.8,0-2.4,0-3.2,0.8
		C225.6,366.4,224.8,366.4,224,367.2z"/>
	<path style="fill:#DCFFFC;" d="M238.4,368c0.8,0,0.8-0.8,2.4-0.8c0.8-0.8,2.4-0.8,3.2-1.6c0.8-0.8,2.4-0.8,3.2-0.8
		c0.8,0,1.6,0,1.6,0.8v0.8l-0.8,0.8l-0.8,1.6c0.8,0,0.8-0.8,1.6-0.8s0.8-0.8,1.6-0.8c1.6-0.8,2.4-1.6,4-2.4s2.4-1.6,4-1.6
		c0.8,0,0.8,0,1.6,0c0,0,0.8,0,0.8,0.8v0.8c0,0.8,0,0.8-0.8,1.6c0,0.8-0.8,0.8-0.8,1.6c-0.8,0.8-0.8,0.8-1.6,1.6c0,0,0,0-0.8,0.8
		l-0.8,0.8l-0.8,0.8v0.8h0.8c0.8,0,0.8,0,1.6,0c0.8,0,0.8,0,0.8-0.8h0.8l2.4-0.8c0,0,0,0,0.8,0c0,0,0.8,0,0.8-0.8h0.8h0.8
		c0,0,0.8,0,0.8,0.8c0,0,0,0.8-0.8,0.8c0,0-0.8,0-0.8,0.8c0,0-0.8,0-1.6,0.8c-0.8,0-0.8,0.8-1.6,0.8c-0.8,0-0.8,0.8-1.6,0.8
		c0,0-0.8,0-1.6,0.8c-0.8,0-1.6,0.8-2.4,0.8s-1.6,0-1.6,0c-0.8,0-0.8-0.8-0.8-1.6v-0.8l0.8-0.8l0.8-0.8l0.8-0.8c0,0,0.8-0.8,0.8-1.6
		c0.8-0.8,0.8-1.6,0.8-1.6c-0.8,0-2.4,0-3.2,0.8c-0.8,0.8-2.4,0.8-3.2,1.6c-0.8,0.8-2.4,0.8-3.2,1.6c-1.6,0.8-2.4,1.6-3.2,2.4h-0.8
		h-0.8c0,0,0,0-0.8-0.8v-0.8l0.8-0.8c0,0,0-0.8,0.8-0.8c0-0.8,0-0.8,0.8-0.8v-0.8v-0.8c-0.8,0-0.8,0-1.6,0.8c-0.8,0-0.8,0-0.8,0
		c-0.8,0-0.8,0.8-1.6,0.8c-0.8,0-0.8,0.8-1.6,0.8c0,0-0.8,0-0.8,0.8c0,0-0.8,0-0.8,0.8H236c0,0,0,0-0.8,0
		C238.4,368.8,238.4,368.8,238.4,368L238.4,368z"/>
	<path style="fill:#DCFFFC;" d="M271.2,364.8c0,0,0.8,0,0.8-0.8c0.8,0,0.8-0.8,1.6-0.8c0.8,0,0.8,0,1.6,0l0.8,0.8c0,0,0,0.8-0.8,0.8
		l-0.8,0.8c0,0.8-0.8,0.8-0.8,1.6c0,0.8,0,1.6,0,1.6c0.8,0,1.6,0,2.4,0s1.6-0.8,2.4-0.8c0,0,0.8,0,0.8-0.8s0.8-0.8,1.6-0.8
		c0.8,0,0.8-0.8,1.6-0.8c0.8,0,0.8,0,0.8,0v0.8c0,0-0.8,0.8-1.6,0.8c-0.8,0-0.8,0.8-1.6,0.8c-0.8,0-0.8,0-0.8,0.8
		c-0.8,0.8-1.6,0.8-2.4,1.6c-0.8,0.8-1.6,0.8-2.4,0.8s-1.6,0-1.6-0.8s-0.8-0.8-0.8-1.6c0-0.8,0-1.6,0-2.4s0.8-1.6,0.8-2.4
		c-0.8,0-1.6,0.8-2.4,0.8s-1.6,0.8-2.4,0.8s-1.6,0.8-2.4,0.8s-0.8,0-0.8,0v-0.8L271.2,364.8z M277.6,353.6c0-0.8,0.8-0.8,0.8-1.6
		s0.8-0.8,1.6-0.8c0.8,0,0.8-0.8,1.6-0.8c0.8,0,0.8,0,1.6,0c1.6,0,3.2,0,4,0h0.8c0,0,0.8,0,0,0.8c0,0,0,0,0,0.8c0,0,0,0-0.8,0
		s-2.4,0-3.2,0c-1.6,0-2.4,0.8-3.2,0.8l-0.8,0.8c0,0,0,0.8-0.8,0.8c0,0-0.8,0-1.6,0C277.6,354.4,277.6,353.6,277.6,353.6z"/>
	<path style="fill:#DCFFFC;" d="M283.2,368c0.8-0.8,1.6-0.8,3.2-1.6c0.8-0.8,1.6-0.8,3.2-1.6c0,0,0.8,0,0.8-0.8h0.8
		c0.8,0,1.6-0.8,2.4-0.8s1.6,0,2.4,0c0,0,0.8,0,0.8,0.8v0.8v0.8c0,0,0,0-0.8,0h-0.8h-0.8c-0.8,0-0.8,0-1.6,0c-0.8,0-0.8,0-1.6,0.8
		c-0.8,0-1.6,0.8-1.6,1.6c0,0.8,0,1.6,0,2.4c0.8,0.8,1.6,0.8,2.4,1.6c0.8,0,1.6,0,2.4,0s1.6,0,3.2-0.8c0.8,0,1.6-0.8,2.4-0.8
		s1.6-0.8,2.4-0.8s1.6-0.8,1.6-0.8h0.8v0.8c0,0,0,0.8-0.8,0.8s-0.8,0-0.8,0c-1.6,0.8-3.2,1.6-4.8,2.4c-1.6,0.8-3.2,0.8-5.6,0.8
		c-0.8,0-1.6,0-2.4-0.8c-0.8,0-1.6-0.8-1.6-1.6c-0.8-0.8-0.8-0.8-0.8-1.6c0-0.8,0.8-1.6,0.8-2.4l0,0c0,0-0.8,0.8-1.6,0.8
		c-0.8,0-0.8,0.8-1.6,0.8c0,0-0.8,0-0.8,0.8H284C283.2,369.6,283.2,368.8,283.2,368C282.4,368,283.2,368,283.2,368z"/>
</g>
<path style="fill:#3A8484;" d="M280,12c0,2.4-1.6,4-4,4h-56c-2.4,0-4-1.6-4-4l0,0c0-2.4,1.6-4,4-4h56C278.4,8,280,9.6,280,12L280,12
	z"/>
<g>
</g>
<g>
</g>
<g>
</g>
<g>
</g>
<g>
</g>
<g>
</g>
<g>
</g>
<g>
</g>
<g>
</g>
<g>
</g>
<g>
</g>
<g>
</g>
<g>
</g>
<g>
</g>
<g>
</g>
</svg>
