<?xml version="1.0" encoding="iso-8859-1"?>
<!-- Generator: Adobe Illustrator 19.0.0, SVG Export Plug-In . SVG Version: 6.00 Build 0)  -->
<svg version="1.1" id="Capa_1" xmlns="http://www.w3.org/2000/svg" xmlns:xlink="http://www.w3.org/1999/xlink" x="0px" y="0px"
	 viewBox="0 0 512 512" style="enable-background:new 0 0 512 512;" xml:space="preserve">
<path style="fill:#5C5F66;" d="M314.846,0h-120c-11.106,0-18.418,11.741-13.418,21.709l30,61h86.836l30-61
	C333.264,11.741,325.953,0,314.846,0z"/>
<path style="fill:#53565C;" d="M314.846,0h-60v82.709h43.418l30-61C333.265,11.741,325.954,0,314.846,0z"/>
<path style="fill:#EDF0F2;" d="M284.846,61h-60c-38.921,0-48.118,32.648-53.405,60l23.635,30h119.539l23.635-30
	C332.965,93.648,323.767,61,284.846,61z"/>
<path style="fill:#DAE1E6;" d="M284.846,61h-30v90h59.769l23.635-30C332.965,93.648,323.767,61,284.846,61z"/>
<path style="fill:#B37447;" d="M446.847,422c-1.501,10.499-3.6,21.299-6.301,32.1c-8.401,34.199-38.401,57.9-73.2,57.9h-222
	c-35.099,0-65.999-24.901-73.2-59.101c-2.098-9.899-4.199-20.4-5.999-30.899l24-61.8l-15.3-89.2c12.299-32.1,34.799-62.1,71.1-86.7
	c10.201-6.899,15.601-19.501,19.2-33.3c2.999-11.4,4.2-18.9,6.299-30h166.802c2.098,11.1,3.3,18.6,6.299,30
	c3.6,13.799,9,26.4,19.2,33.3c32.699,21.899,56.4,51.301,71.1,86.7l-13.2,84.099L446.847,422z"/>
<path style="fill:#995C3D;" d="M446.847,422c-1.501,10.499-3.6,21.299-6.301,32.1c-8.401,34.199-38.401,57.9-73.2,57.9h-112.5V121
	h83.401c2.098,11.1,3.3,18.6,6.299,30c3.6,13.799,9,26.4,19.2,33.3c32.699,21.899,56.4,51.301,71.1,86.7l-13.2,84.099L446.847,422z"
	/>
<path style="fill:#FF9F19;" d="M446.847,422h-380.7c-8.101-48.9-10.501-103.001,8.699-151h360
	C452.247,312.999,456.446,364.699,446.847,422z"/>
<path style="fill:#F28618;" d="M254.846,271v151h192.001c9.598-57.301,5.4-109.001-12.001-151H254.846z"/>
<path style="fill:#E6EEFF;" d="M254.846,452c-57.891,0-105-48.109-105-106s47.109-105,105-105s105,47.109,105,105
	S312.737,452,254.846,452z"/>
<path style="fill:#DAE2F2;" d="M359.846,346c0-57.891-47.109-105-105-105v211C312.737,452,359.846,403.891,359.846,346z"/>
<path style="fill:#5C5F66;" d="M295.346,366.499c6,5.7,6,15.3,0,21c-5.7,6-15.298,6-20.999,0l-19.501-19.2l-19.501,19.2
	c-5.7,6-15.298,6-20.999,0c-6-5.7-6-15.3,0-21l19.2-20.499l-19.199-19.501c-6-5.7-6-15.3,0-21c5.7-5.999,15.298-5.999,20.999,0
	l19.501,19.2l19.501-19.2c5.7-5.999,15.298-5.999,20.999,0c6,5.7,6,15.3,0,21L276.147,346L295.346,366.499z"/>
<path style="fill:#53565C;" d="M295.346,366.499c6,5.7,6,15.3,0,21c-5.7,6-15.298,6-20.999,0l-19.501-19.2V324.7l19.501-19.2
	c5.7-5.999,15.298-5.999,20.999,0c6,5.7,6,15.3,0,21L276.147,346L295.346,366.499z"/>
<g>
</g>
<g>
</g>
<g>
</g>
<g>
</g>
<g>
</g>
<g>
</g>
<g>
</g>
<g>
</g>
<g>
</g>
<g>
</g>
<g>
</g>
<g>
</g>
<g>
</g>
<g>
</g>
<g>
</g>
</svg>
