<?xml version="1.0" encoding="iso-8859-1"?>
<!-- Generator: Adobe Illustrator 19.0.0, SVG Export Plug-In . SVG Version: 6.00 Build 0)  -->
<svg version="1.1" id="Layer_1" xmlns="http://www.w3.org/2000/svg" xmlns:xlink="http://www.w3.org/1999/xlink" x="0px" y="0px"
	 viewBox="0 0 512.001 512.001" style="enable-background:new 0 0 512.001 512.001;" xml:space="preserve">
<path style="fill:#FFA05A;" d="M303.015,146.855c0.426-3.449,0.746-6.82,0.976-10.119l-47.99-33.246l-47.99,33.246
	c0.231,3.297,0.549,6.67,0.976,10.119c7.038,56.917-63.34,28.99-67.179,122.041l114.194,12.843l114.194-12.843
	C366.357,175.845,295.978,203.771,303.015,146.855z"/>
<path style="fill:#464655;" d="M288.94,53.1v-26.55h-65.878v26.549c0,0-18.628,32.513-15.051,83.637h95.981
	C307.568,85.612,288.94,53.1,288.94,53.1z"/>
<path style="opacity:0.5;fill:#171D26;enable-background:new    ;" d="M298.296,77.492c-4.33-15.6-9.356-24.392-9.356-24.392v-26.55
	h-65.878v26.549c0,0-5.026,8.793-9.356,24.392h84.59V77.492z"/>
<ellipse style="fill:#F2E9DC;" cx="256.003" cy="95.43" rx="14.63" ry="18.665"/>
<path style="fill:#FFA05A;" d="M256.002,440.507l-114.194,21.648v28.753c0,11.649,9.443,21.092,21.093,21.092h186.202
	c11.649,0,21.093-9.443,21.093-21.092v-28.753L256.002,440.507z"/>
<rect x="141.805" y="268.898" style="fill:#464655;" width="228.385" height="193.261"/>
<g>
	<path style="fill:#F2E9DC;" d="M168.555,327.395c-4.394,0-7.954-3.56-7.954-7.954c0-19.685,16.015-35.699,35.699-35.699
		c4.394,0,7.954,3.56,7.954,7.954c0,4.394-3.56,7.954-7.954,7.954c-10.913,0-19.791,8.878-19.791,19.791
		C176.509,323.835,172.948,327.395,168.555,327.395z"/>
	<path style="fill:#F2E9DC;" d="M343.449,327.395c-4.394,0-7.954-3.56-7.954-7.954c0-10.913-8.879-19.791-19.792-19.791
		c-4.394,0-7.954-3.56-7.954-7.954c0-4.394,3.56-7.954,7.954-7.954c19.686,0,35.7,16.015,35.7,35.699
		C351.403,323.835,347.842,327.395,343.449,327.395z"/>
	<path style="fill:#F2E9DC;" d="M196.299,447.308c-19.685,0-35.699-16.015-35.699-35.699c0-4.394,3.56-7.954,7.954-7.954
		c4.394,0,7.954,3.56,7.954,7.954c0,10.913,8.878,19.791,19.791,19.791c4.394,0,7.954,3.56,7.954,7.954
		C204.253,443.747,200.692,447.308,196.299,447.308z"/>
	<path style="fill:#F2E9DC;" d="M315.704,447.308c-4.394,0-7.954-3.56-7.954-7.954c0-4.394,3.56-7.954,7.954-7.954
		c10.913,0,19.792-8.878,19.792-19.791c0-4.394,3.56-7.954,7.954-7.954s7.954,3.56,7.954,7.954
		C351.403,431.294,335.388,447.308,315.704,447.308z"/>
	<path style="fill:#F2E9DC;" d="M301.552,382.082h-91.1c-4.394,0-7.954-3.56-7.954-7.954c0-4.394,3.56-7.954,7.954-7.954h91.1
		c4.394,0,7.954,3.56,7.954,7.954C309.506,378.522,305.945,382.082,301.552,382.082z"/>
	<path style="fill:#F2E9DC;" d="M301.552,405.878h-91.1c-4.394,0-7.954-3.56-7.954-7.954c0-4.394,3.56-7.954,7.954-7.954h91.1
		c4.394,0,7.954,3.56,7.954,7.954C309.506,402.318,305.945,405.878,301.552,405.878z"/>
	<path style="fill:#F2E9DC;" d="M301.552,429.674h-91.1c-4.394,0-7.954-3.56-7.954-7.954s3.56-7.954,7.954-7.954h91.1
		c4.394,0,7.954,3.56,7.954,7.954S305.945,429.674,301.552,429.674z"/>
	<ellipse style="fill:#F2E9DC;" cx="256.003" cy="325.138" rx="38.814" ry="22.533"/>
</g>
<path style="fill:#353540;" d="M292.656,0h-73.31c-6.437,0-11.657,5.219-11.657,11.657V53.1h96.624V11.657
	C304.314,5.219,299.095,0,292.656,0z"/>
<path style="opacity:0.2;fill:#171D26;enable-background:new    ;" d="M181.048,490.907v-28.753V268.896
	c3.839-93.051,74.217-65.124,67.179-122.041c-0.426-3.449-0.746-6.82-0.976-10.119c-1.718-24.565,1.692-44.815,5.696-59.244
	c0-0.001,0-0.003,0.001-0.004c4.276-15.404,9.22-24.154,9.343-24.369c0.001-0.002,0.011-0.02,0.011-0.02H246.93V11.657
	C246.929,5.219,252.148,0,258.586,0h-39.24c-6.437,0-11.656,5.219-11.656,11.657V53.1h15.372c0,0-0.01,0.017-0.011,0.02
	c-0.123,0.215-5.067,8.965-9.343,24.369c0,0.001-0.001,0.003-0.001,0.004c-4.005,14.429-7.414,34.679-5.696,59.244
	c0.231,3.297,0.549,6.67,0.976,10.119c7.038,56.917-63.34,28.99-67.179,122.041v193.26v28.753c0,11.649,9.443,21.092,21.093,21.092
	h39.24C190.491,512,181.048,502.557,181.048,490.907z"/>
<g>
</g>
<g>
</g>
<g>
</g>
<g>
</g>
<g>
</g>
<g>
</g>
<g>
</g>
<g>
</g>
<g>
</g>
<g>
</g>
<g>
</g>
<g>
</g>
<g>
</g>
<g>
</g>
<g>
</g>
</svg>
